<svg xmlns="http://www.w3.org/2000/svg" viewBox="0 0 133.33 157.28">
<title>Asset 3</title>
<g id="Layer_2" data-name="Layer 2">
<g id="Layer_1-2" data-name="Layer 1">
<circle cx="96.06" cy="109.69" r="20.96" fill="#e03e28" opacity="0.82"/>
<path d="M96.87,108.85l11.25-16.2s10.41,7.06,8.71,19.19Z" fill="#f2e949" opacity="0.82"/>
<path d="M96.87,110.19l20,2.75s-5,17.7-20,16.75Z" fill="#2b3aef" opacity="0.82"/>
<rect x="2" y="2" width="129.33" height="153.28" rx="5.48" ry="5.48" fill="none" stroke="#e8e8e8" stroke-miterlimit="10" stroke-width="4"/>
<circle cx="96.06" cy="109.69" r="20.96" fill="none" stroke="#e8e8e8" stroke-miterlimit="10" stroke-width="2"/>
<line x1="17.46" y1="84.82" x2="60.92" y2="84.82"/><path d="M17.46,86.07H60.92a1.25,1.25,0,0,0,0-2.5H17.46a1.25,1.25,0,0,0,0,2.5Z" fill="#f2f2f2"/><line x1="17.46" y1="96.83" x2="60.92" y2="96.83"/><path d="M17.46,98.08H60.92a1.25,1.25,0,0,0,0-2.5H17.46a1.25,1.25,0,0,0,0,2.5Z" fill="#f2f2f2"/><line x1="17.46" y1="108.85" x2="60.92" y2="108.85"/><path d="M17.46,110.1H60.92a1.25,1.25,0,0,0,0-2.5H17.46a1.25,1.25,0,0,0,0,2.5Z" fill="#f2f2f2"/><line x1="17.46" y1="120.87" x2="60.92" y2="120.87"/><path d="M17.46,122.12H60.92a1.25,1.25,0,0,0,0-2.5H17.46a1.25,1.25,0,0,0,0,2.5Z" fill="#f2f2f2"/><line x1="17.46" y1="132.88" x2="60.92" y2="132.88"/><path d="M17.46,134.13H60.92a1.25,1.25,0,0,0,0-2.5H17.46a1.25,1.25,0,0,0,0,2.5Z" fill="#f2f2f2"/><rect x="24.92" y="55.44" width="15.8" height="9.1" rx="2.39" ry="2.39" fill="#e8e8e8"/><rect x="46.33" y="48.75" width="15.8" height="15.8" rx="2.5" ry="2.5" fill="#e8e8e8"/><rect x="67.44" y="32.62" width="15.8" height="31.92" rx="1.66" ry="1.66" fill="#e8e8e8"/><rect x="89.06" y="13.56" width="15.8" height="50.99" rx="1.04" ry="1.04" fill="#e8e8e8"/><path d="M95.06,109.69v21a1,1,0,0,0,2,0v-21a1,1,0,0,0-2,0Z" fill="#e8e8e8"/><path d="M107,91.85,95.2,109c-.73,1.06,1,2.06,1.73,1l11.77-17.11c.73-1.06-1-2.06-1.73-1Z" fill="#e8e8e8"/><path d="M117.09,111.58,96.33,108.5c-1.26-.19-1.8,1.74-.53,1.93l20.76,3.09c1.26.19,1.8-1.74.53-1.93Z" fill="#e8e8e8"/></g></g></svg>