<svg xmlns="http://www.w3.org/2000/svg" viewBox="0 0 133.94 122.06"><title>Asset 2</title><g id="Layer_2" data-name="Layer 2"><g id="Layer_1-2" data-name="Layer 1"><path d="M5,94.34s22.59,2.15,63-30.66A76.21,76.21,0,0,0,83.48,46.49C90.57,35.75,102,18.93,104.72,18.09c2.88-.9-11.2,20.33-19.32,32.31A104.15,104.15,0,0,1,71,67.43C57.59,80.17,31.35,102.1,6.72,105.09,6.72,105.09-6,104.35,5,94.34Z" fill="#c3d848" stroke="#c3d848" stroke-miterlimit="10"/><path d="M85.77,45.26S76.22,3.84,130.22,2.59c0,0-12.6,31.73-24.2,38.55S85.77,45.26,85.77,45.26Z" fill="none" stroke="#c3d848" stroke-miterlimit="10" stroke-width="5"/><rect x="11.72" y="108.81" width="23" height="13.25" rx="5.25" ry="5.25" fill="#f2f2f2"/><rect x="42.89" y="99.06" width="23" height="23" rx="5.25" ry="5.25" fill="#f2f2f2"/><rect x="73.62" y="75.59" width="23" height="46.47" rx="5.25" ry="5.25" fill="#f2f2f2"/><rect x="105.1" y="47.84" width="23" height="74.22" rx="5.25" ry="5.25" fill="#e8e8e8"/></g></g></svg>