<svg width="287" height="147" viewBox="0 0 287 147" fill="none" xmlns="http://www.w3.org/2000/svg">
<path d="M143.5 131.392C222.753 131.392 287 129.61 287 127.413C287 125.215 222.753 123.434 143.5 123.434C64.2471 123.434 0 125.215 0 127.413C0 129.61 64.2471 131.392 143.5 131.392Z" fill="#E6E6E6"/>
<path d="M219.975 84.2972C219.794 84.2996 219.613 84.3021 219.429 84.3021C219.246 84.3021 219.064 84.2996 218.883 84.2972C209.277 84.0807 202.315 78.1311 204.087 71.8887L208.409 56.6604L209.501 52.8073L228.861 53.1345L230.038 56.904L234.67 71.7411C236.631 78.0179 229.668 84.0807 219.975 84.2972Z" fill="#3F3D56"/>
<path opacity="0.2" d="M230.038 56.904C226.737 58.7746 222.992 59.7382 219.19 59.6954C215.388 59.6526 211.666 58.6049 208.409 56.6604L209.501 52.8073L228.861 53.1345L230.038 56.904Z" fill="black"/>
<path d="M229.221 72.394C230.057 69.3041 232.806 64.8468 240.515 59.4726C253.959 50.0985 245.939 43.0698 245.591 42.7753C244.862 42.1575 244.97 41.4639 245.842 41.2269C246.348 41.1266 246.87 41.1347 247.373 41.2508C247.876 41.3668 248.348 41.5881 248.758 41.8998C249.193 42.2567 259.236 50.7583 244.065 61.3346C230.412 70.8543 233.315 77.0685 233.348 77.1282C233.714 77.7928 233.128 78.3246 232.037 78.3174C230.946 78.3102 229.765 77.7662 229.398 77.1022C229.32 76.9618 228.442 75.2705 229.221 72.394Z" fill="#3F3D56"/>
<path d="M210.494 86.5166C210.2 86.5166 209.91 86.4593 209.639 86.348C209.368 86.2367 209.121 86.0736 208.914 85.868C208.707 85.6623 208.542 85.4182 208.43 85.1495C208.317 84.8809 208.26 84.5929 208.26 84.3021V74.706C208.26 74.1187 208.495 73.5554 208.914 73.1401C209.333 72.7248 209.901 72.4915 210.494 72.4915C211.086 72.4915 211.654 72.7248 212.073 73.1401C212.492 73.5554 212.728 74.1187 212.728 74.706V84.3021C212.728 84.5929 212.67 84.8809 212.557 85.1495C212.445 85.4182 212.281 85.6623 212.073 85.868C211.866 86.0736 211.62 86.2367 211.348 86.348C211.077 86.4593 210.787 86.5166 210.494 86.5166Z" fill="#3F3D56"/>
<path d="M212.452 63.735C212.33 63.9992 212.156 64.2369 211.94 64.4344C211.725 64.632 211.473 64.7856 211.198 64.8865C210.922 64.9873 210.63 65.0335 210.337 65.0223C210.044 65.0111 209.756 64.9428 209.489 64.8212L200.695 60.8103C200.157 60.5644 199.74 60.1171 199.535 59.5665C199.33 59.0159 199.354 58.4071 199.601 57.8739C199.849 57.3408 200.3 56.9268 200.855 56.7229C201.41 56.5191 202.024 56.542 202.562 56.7868L211.357 60.7977C211.623 60.9192 211.863 61.0916 212.062 61.305C212.261 61.5184 212.416 61.7686 212.518 62.0414C212.62 62.3141 212.666 62.6041 212.655 62.8947C212.644 63.1853 212.575 63.4708 212.452 63.735Z" fill="#3F3D56"/>
<path d="M226.406 63.735C226.529 63.9992 226.703 64.2369 226.918 64.4345C227.133 64.632 227.386 64.7856 227.661 64.8865C227.936 64.9874 228.229 65.0335 228.522 65.0223C228.815 65.0111 229.103 64.9428 229.369 64.8212L238.164 60.8103C238.702 60.5648 239.12 60.1175 239.325 59.5666C239.531 59.0157 239.507 58.4065 239.259 57.873C239.012 57.3394 238.561 56.9252 238.005 56.7215C237.449 56.5178 236.835 56.5413 236.296 56.7868L227.502 60.7977C227.236 60.9192 226.996 61.0916 226.796 61.305C226.597 61.5184 226.442 61.7686 226.34 62.0414C226.239 62.3142 226.192 62.6041 226.203 62.8947C226.215 63.1853 226.284 63.4709 226.406 63.735Z" fill="#3F3D56"/>
<path d="M228.365 86.5166C228.658 86.5166 228.949 86.4593 229.22 86.348C229.491 86.2367 229.737 86.0736 229.945 85.868C230.152 85.6623 230.317 85.4182 230.429 85.1495C230.541 84.8809 230.599 84.5929 230.599 84.3021V74.706C230.599 74.1187 230.364 73.5554 229.945 73.1401C229.526 72.7248 228.957 72.4915 228.365 72.4915C227.773 72.4915 227.204 72.7248 226.785 73.1401C226.366 73.5554 226.131 74.1187 226.131 74.706V84.3021C226.131 84.5929 226.189 84.8809 226.301 85.1495C226.413 85.4182 226.578 85.6623 226.785 85.868C226.993 86.0736 227.239 86.2367 227.51 86.348C227.781 86.4593 228.072 86.5166 228.365 86.5166Z" fill="#3F3D56"/>
<path d="M237.701 24.3917C237.894 24.1506 238.033 23.8717 238.11 23.5734C238.186 23.2751 238.198 22.9641 238.144 22.661L236.928 15.5708L235.713 8.48064C235.647 8.09782 235.481 7.73887 235.231 7.43988C234.981 7.14088 234.656 6.91238 234.289 6.77733C233.921 6.64227 233.525 6.60543 233.139 6.67051C232.752 6.73558 232.39 6.90028 232.089 7.14805L226.502 11.7369L223.137 14.5015C220.892 14.1059 218.598 14.0716 216.343 14.4L213.101 11.7369L207.515 7.14805C207.213 6.90028 206.851 6.73559 206.465 6.67051C206.078 6.60544 205.682 6.64228 205.315 6.77733C204.947 6.91238 204.622 7.14089 204.372 7.43988C204.122 7.73888 203.956 8.09783 203.891 8.48064L202.675 15.5708L201.459 22.661C201.394 23.0336 201.428 23.4166 201.556 23.7726C199.473 26.939 198.283 30.601 198.111 34.3776C197.939 38.1543 198.791 41.9077 200.578 45.2473C202.365 48.587 205.023 51.3909 208.274 53.3674C211.525 55.3439 215.251 56.4209 219.064 56.4862C222.877 56.5515 226.638 55.6028 229.956 53.7388C233.274 51.8748 236.027 49.1635 237.93 45.8871C239.833 42.6106 240.815 38.8887 240.775 35.1084C240.734 31.3281 239.673 27.6275 237.701 24.3917Z" fill="#3F3D56"/>
<path d="M206.955 10.0535C206.822 10.0537 206.691 10.0774 206.567 10.1233C206.384 10.1892 206.223 10.302 206.099 10.4502C205.975 10.5984 205.893 10.7767 205.862 10.9666L204.387 19.5648C204.355 19.7543 204.373 19.949 204.441 20.1293C204.508 20.3095 204.622 20.469 204.772 20.5916C204.921 20.7143 205.1 20.7958 205.291 20.828C205.483 20.8602 205.679 20.842 205.861 20.7751L214.11 17.7417C214.291 17.6749 214.452 17.5618 214.576 17.4138C214.7 17.2657 214.782 17.0881 214.814 16.8986C214.847 16.709 214.829 16.5144 214.761 16.3342C214.694 16.1539 214.58 15.9945 214.43 15.8718L214.43 15.8716L207.656 10.3069C207.459 10.1437 207.211 10.054 206.955 10.0535Z" fill="#E6E6E6"/>
<path d="M232.649 10.0535C232.392 10.054 232.144 10.1437 231.947 10.3069L225.173 15.8718C225.024 15.9945 224.91 16.1539 224.842 16.3342C224.775 16.5144 224.756 16.709 224.789 16.8986C224.821 17.0881 224.904 17.2657 225.027 17.4138C225.151 17.5618 225.312 17.6749 225.494 17.7417L233.742 20.7751C233.924 20.842 234.121 20.8602 234.312 20.828C234.503 20.7958 234.682 20.7143 234.832 20.5916C234.981 20.469 235.095 20.3095 235.163 20.1293C235.23 19.949 235.249 19.7543 235.216 19.5648L233.742 10.9666C233.71 10.7767 233.628 10.5984 233.504 10.4502C233.38 10.302 233.219 10.1892 233.037 10.1233C232.912 10.0774 232.781 10.0537 232.649 10.0535Z" fill="#E6E6E6"/>
<path d="M219.429 41.2428C221.074 41.2428 222.408 39.9208 222.408 38.2901C222.408 36.6594 221.074 35.3375 219.429 35.3375C217.784 35.3375 216.451 36.6594 216.451 38.2901C216.451 39.9208 217.784 41.2428 219.429 41.2428Z" fill="#E6E6E6"/>
<path d="M219.429 37.5519C220.526 37.5519 221.415 37.2215 221.415 36.8138C221.415 36.4061 220.526 36.0756 219.429 36.0756C218.333 36.0756 217.444 36.4061 217.444 36.8138C217.444 37.2215 218.333 37.5519 219.429 37.5519Z" fill="#3F3D56"/>
<path d="M217.94 40.0125H220.67V43.3342C220.67 43.5119 220.635 43.6879 220.566 43.8521C220.498 44.0163 220.397 44.1655 220.271 44.2911C220.144 44.4168 219.993 44.5165 219.828 44.5845C219.662 44.6525 219.484 44.6875 219.305 44.6875C218.943 44.6875 218.596 44.5449 218.34 44.2911C218.084 44.0373 217.94 43.6931 217.94 43.3342V40.0125H217.94Z" fill="#FF6584"/>
<path d="M219.595 6.52139C219.452 6.81571 219.313 7.11322 219.182 7.41681C217.642 10.9781 217.122 14.8916 217.681 18.7267C217.96 18.3248 218.254 17.906 218.553 17.4827C217.913 13.8019 218.273 10.0188 219.595 6.52139Z" fill="#3F3D56"/>
<path d="M221.829 9.22797C221.686 9.52229 221.547 9.81979 221.416 10.1234C219.876 13.6847 219.356 17.5982 219.915 21.4333C220.194 21.0314 220.488 20.6126 220.787 20.1892C220.147 16.5085 220.507 12.7253 221.829 9.22797Z" fill="#3F3D56"/>
<path d="M228.716 62.3638L228.402 58.3965L228.087 54.4291C228.07 54.2149 227.996 54.0089 227.874 53.8318C227.751 53.6547 227.583 53.5128 227.388 53.4203C227.192 53.3277 226.975 53.2879 226.759 53.3048C226.543 53.3216 226.335 53.3945 226.157 53.5162L222.848 55.7701L220.432 57.4159C220.277 57.2367 220.086 57.0928 219.87 56.9941C219.654 56.8954 219.419 56.8443 219.181 56.8443C218.943 56.8443 218.708 56.8954 218.492 56.9941C218.277 57.0928 218.085 57.2367 217.93 57.4159L215.514 55.7701L212.206 53.5162C212.027 53.3945 211.819 53.3216 211.603 53.3047C211.387 53.2879 211.17 53.3277 210.975 53.4202C210.779 53.5128 210.611 53.6547 210.489 53.8318C210.366 54.0089 210.292 54.2149 210.275 54.4291L209.961 58.3965L209.646 62.3638C209.629 62.578 209.669 62.7929 209.762 62.9868C209.856 63.1807 209.999 63.3469 210.178 63.4686C210.356 63.5903 210.564 63.6632 210.78 63.6801C210.996 63.6969 211.213 63.6571 211.409 63.5645L215.032 61.851L218.009 60.4431C218.162 60.597 218.345 60.7192 218.546 60.8025C218.747 60.8859 218.963 60.9289 219.181 60.9289C219.399 60.9289 219.615 60.8859 219.816 60.8025C220.017 60.7192 220.2 60.597 220.353 60.4431L223.33 61.851L226.954 63.5645C227.149 63.6571 227.366 63.6969 227.582 63.6801C227.798 63.6632 228.006 63.5903 228.185 63.4686C228.363 63.3469 228.506 63.1807 228.6 62.9868C228.693 62.7929 228.733 62.578 228.716 62.3638Z" fill="#2BBD3F"/>
<path d="M215.458 35.8296C215.869 35.8296 216.203 35.4991 216.203 35.0914C216.203 34.6837 215.869 34.3532 215.458 34.3532C215.047 34.3532 214.713 34.6837 214.713 35.0914C214.713 35.4991 215.047 35.8296 215.458 35.8296Z" fill="#E6E6E6"/>
<path d="M223.401 35.8296C223.812 35.8296 224.145 35.4991 224.145 35.0914C224.145 34.6837 223.812 34.3532 223.401 34.3532C222.989 34.3532 222.656 34.6837 222.656 35.0914C222.656 35.4991 222.989 35.8296 223.401 35.8296Z" fill="#E6E6E6"/>
<path d="M75.3514 77.7758C75.5326 77.7782 75.7138 77.7807 75.8975 77.7807C76.0812 77.7807 76.2623 77.7782 76.4435 77.7758C86.0494 77.5592 93.0119 71.6097 91.2396 65.3673L86.9182 50.1391L85.8261 46.2859L66.4653 46.6131L65.2888 50.3826L60.6571 65.2197C58.6962 71.4965 65.6586 77.5592 75.3514 77.7758Z" fill="#3F3D56"/>
<path opacity="0.2" d="M65.2888 50.3826C68.5899 52.2532 72.3347 53.2168 76.1369 53.174C79.939 53.1312 83.6608 52.0835 86.9182 50.1391L85.8261 46.2859L66.4653 46.6131L65.2888 50.3826Z" fill="black"/>
<path d="M63.7544 64.0677C61.6647 61.6298 57.2562 58.7671 47.969 57.1796C31.7713 54.4097 35.9861 44.6551 36.1731 44.2415C36.5653 43.3739 36.1686 42.7927 35.2785 42.9483C34.7774 43.0724 34.309 43.3012 33.9045 43.6194C33.5 43.9377 33.1688 44.338 32.9331 44.7935C32.6937 45.3007 27.2865 57.2445 45.5636 60.3686C62.0129 63.1815 62.0716 70.0294 62.0673 70.0974C62.0235 70.8533 62.7833 71.0851 63.766 70.6159C64.7488 70.1468 65.5819 69.1538 65.627 68.3981C65.6361 68.2384 65.7001 66.3371 63.7544 64.0677Z" fill="#3F3D56"/>
<path d="M84.8332 79.9952C85.1266 79.9952 85.417 79.9379 85.6881 79.8266C85.9591 79.7154 86.2054 79.5522 86.4128 79.3466C86.6203 79.141 86.7848 78.8968 86.8971 78.6282C87.0094 78.3595 87.0671 78.0715 87.0671 77.7807V68.1846C87.0664 67.5978 86.8307 67.0352 86.4119 66.6205C85.993 66.2058 85.4252 65.9728 84.8332 65.9728C84.2412 65.9728 83.6734 66.2058 83.2545 66.6205C82.8356 67.0352 82.6 67.5978 82.5992 68.1846V77.7807C82.5992 78.0715 82.657 78.3595 82.7693 78.6282C82.8815 78.8968 83.0461 79.141 83.2535 79.3466C83.461 79.5522 83.7072 79.7154 83.9783 79.8266C84.2493 79.9379 84.5398 79.9952 84.8332 79.9952Z" fill="#3F3D56"/>
<path d="M82.8745 57.2137C82.9971 57.4778 83.171 57.7155 83.3863 57.9131C83.6016 58.1106 83.854 58.2642 84.1291 58.3651C84.4043 58.466 84.6968 58.5121 84.9899 58.5009C85.2831 58.4897 85.5711 58.4214 85.8377 58.2998L94.6319 54.2889C94.8987 54.1676 95.1388 53.9953 95.3384 53.7819C95.538 53.5685 95.6932 53.3182 95.7952 53.0453C95.8972 52.7724 95.9438 52.4823 95.9326 52.1915C95.9214 51.9007 95.8525 51.615 95.7298 51.3506C95.6071 51.0862 95.433 50.8484 95.2175 50.6508C95.0021 50.4531 94.7494 50.2995 94.474 50.1988C94.1986 50.098 93.9059 50.052 93.6125 50.0634C93.3192 50.0749 93.031 50.1435 92.7645 50.2654L83.9702 54.2763C83.7037 54.3978 83.464 54.5702 83.2646 54.7836C83.0653 54.997 82.9104 55.2473 82.8086 55.52C82.7069 55.7928 82.6603 56.0827 82.6716 56.3733C82.6829 56.6639 82.7519 56.9495 82.8745 57.2137Z" fill="#3F3D56"/>
<path d="M68.9204 57.2137C68.7978 57.4778 68.6239 57.7155 68.4087 57.9131C68.1934 58.1106 67.941 58.2642 67.6658 58.3651C67.3906 58.466 67.0981 58.5121 66.805 58.5009C66.5118 58.4897 66.2238 58.4214 65.9573 58.2998L57.163 54.2889C56.8962 54.1676 56.6561 53.9953 56.4565 53.7819C56.2569 53.5685 56.1017 53.3182 55.9998 53.0453C55.8978 52.7724 55.8511 52.4823 55.8623 52.1915C55.8735 51.9007 55.9425 51.615 56.0652 51.3506C56.1879 51.0862 56.3619 50.8484 56.5774 50.6508C56.7929 50.4531 57.0455 50.2995 57.3209 50.1988C57.5963 50.098 57.8891 50.052 58.1824 50.0634C58.4757 50.0749 58.7639 50.1435 59.0305 50.2654L67.8247 54.2763C68.0912 54.3978 68.331 54.5702 68.5303 54.7836C68.7296 54.997 68.8846 55.2473 68.9863 55.52C69.088 55.7928 69.1346 56.0827 69.1233 56.3733C69.112 56.6639 69.0431 56.9495 68.9204 57.2137Z" fill="#3F3D56"/>
<path d="M66.9618 79.9952C66.6684 79.9952 66.3779 79.9379 66.1069 79.8266C65.8358 79.7154 65.5896 79.5522 65.3821 79.3466C65.1747 79.141 65.0101 78.8968 64.8979 78.6282C64.7856 78.3595 64.7278 78.0715 64.7278 77.7807V68.1846C64.7286 67.5978 64.9642 67.0352 65.3831 66.6205C65.802 66.2058 66.3698 65.9728 66.9618 65.9728C67.5538 65.9728 68.1216 66.2058 68.5404 66.6205C68.9593 67.0352 69.195 67.5978 69.1957 68.1846V77.7807C69.1957 78.0715 69.1379 78.3595 69.0257 78.6282C68.9134 78.8968 68.7488 79.141 68.5414 79.3466C68.334 79.5522 68.0877 79.7154 67.8167 79.8266C67.5456 79.9379 67.2551 79.9952 66.9618 79.9952Z" fill="#3F3D56"/>
<path d="M93.7705 17.2512C93.8992 16.8952 93.9327 16.5122 93.8678 16.1396L92.652 9.04943L91.4361 1.95926C91.3705 1.57644 91.2043 1.21749 90.9544 0.9185C90.7045 0.619506 90.3795 0.391002 90.0123 0.255948C89.645 0.120894 89.2483 0.084049 88.8622 0.149123C88.476 0.214197 88.1139 0.378897 87.8123 0.626662L82.226 5.21551L78.984 7.87856C76.7285 7.55018 74.4344 7.58447 72.1899 7.98011L68.8243 5.2155L63.2381 0.626652C62.9364 0.378886 62.5743 0.214188 62.1882 0.149113C61.802 0.0840387 61.4053 0.120879 61.038 0.255933C60.6708 0.390987 60.3458 0.619496 60.0959 0.91849C59.846 1.21749 59.6798 1.57643 59.6142 1.95925L58.3983 9.04943L57.1825 16.1396C57.1289 16.4428 57.1406 16.7537 57.2171 17.052C57.2935 17.3504 57.4328 17.6292 57.6259 17.8703C55.6514 21.1069 54.5879 24.8089 54.5463 28.5911C54.5046 32.3733 55.4863 36.0975 57.3891 39.3761C59.292 42.6546 62.0464 45.3678 65.3658 47.2331C68.6852 49.0985 72.4482 50.0479 76.2633 49.9825C80.0784 49.9172 83.8061 48.8395 87.0585 46.8615C90.3109 44.8836 92.9691 42.0778 94.7566 38.736C96.544 35.3943 97.3953 31.6387 97.2219 27.8602C97.0484 24.0817 95.8566 20.4182 93.7705 17.2512H93.7705Z" fill="#3F3D56"/>
<path d="M87.6709 3.78552L80.8967 9.3502L80.8966 9.35044C80.7473 9.4731 80.6332 9.63255 80.5657 9.81278C80.4983 9.993 80.4799 10.1877 80.5124 10.3772C80.5449 10.5667 80.6271 10.7443 80.7509 10.8924C80.8746 11.0404 81.0354 11.1535 81.2172 11.2203L89.466 14.2537C89.6478 14.3206 89.8442 14.3388 90.0354 14.3066C90.2266 14.2744 90.4059 14.1929 90.5552 14.0702C90.7046 13.9476 90.8187 13.7881 90.8862 13.6079C90.9536 13.4276 90.972 13.2329 90.9395 13.0434L89.4652 4.44522C89.4337 4.25526 89.3519 4.07702 89.2279 3.92882C89.104 3.78061 88.9425 3.66779 88.76 3.60194C88.6359 3.55596 88.5046 3.53232 88.3721 3.53214C88.1156 3.53261 87.8675 3.62228 87.6709 3.78552Z" fill="#E6E6E6"/>
<path d="M62.2903 3.60194C62.1078 3.66778 61.9463 3.78061 61.8224 3.92881C61.6984 4.07702 61.6166 4.25526 61.5851 4.44522L60.1108 13.0434C60.0783 13.2329 60.0967 13.4276 60.1641 13.6079C60.2316 13.7881 60.3457 13.9476 60.4951 14.0702C60.6444 14.1929 60.8237 14.2744 61.0149 14.3066C61.2061 14.3388 61.4025 14.3206 61.5843 14.2537L69.8331 11.2203C70.0149 11.1535 70.1757 11.0404 70.2994 10.8924C70.4232 10.7443 70.5054 10.5667 70.5379 10.3772C70.5704 10.1877 70.552 9.993 70.4846 9.81278C70.4172 9.63255 70.3031 9.4731 70.1538 9.35044L63.3794 3.78552C63.1828 3.62228 62.9347 3.53261 62.6782 3.53214C62.5457 3.53232 62.4144 3.55596 62.2903 3.60194Z" fill="#E6E6E6"/>
<path d="M75.8975 34.7214C77.5425 34.7214 78.876 33.3994 78.876 31.7687C78.876 30.138 77.5425 28.8161 75.8975 28.8161C74.2524 28.8161 72.9189 30.138 72.9189 31.7687C72.9189 33.3994 74.2524 34.7214 75.8975 34.7214Z" fill="#E6E6E6"/>
<path d="M75.8975 31.0305C76.9941 31.0305 77.8832 30.7001 77.8832 30.2924C77.8832 29.8847 76.9941 29.5542 75.8975 29.5542C74.8008 29.5542 73.9117 29.8847 73.9117 30.2924C73.9117 30.7001 74.8008 31.0305 75.8975 31.0305Z" fill="#3F3D56"/>
<path d="M76.0216 38.1661C75.8423 38.1661 75.6648 38.1311 75.4991 38.0631C75.3335 37.9951 75.183 37.8954 75.0562 37.7697C74.9295 37.6441 74.8289 37.4949 74.7603 37.3307C74.6917 37.1665 74.6564 36.9905 74.6564 36.8128V33.4911H77.3867V36.8128C77.3868 36.9905 77.3514 37.1665 77.2828 37.3307C77.2142 37.4949 77.1137 37.6441 76.9869 37.7697C76.8601 37.8954 76.7096 37.9951 76.544 38.0631C76.3784 38.1311 76.2008 38.1661 76.0216 38.1661Z" fill="#FF6584"/>
<path d="M75.7318 0C75.8749 0.29432 76.0139 0.591824 76.1447 0.895411C77.6851 4.4567 78.2046 8.37023 77.646 12.2053C77.3665 11.8034 77.0728 11.3846 76.7741 10.9613C77.4139 7.28055 77.0541 3.49736 75.7318 0Z" fill="#3F3D56"/>
<path d="M73.4978 2.70657C73.641 3.0009 73.78 3.2984 73.9107 3.60198C75.4512 7.16328 75.9707 11.0768 75.412 14.9119C75.1326 14.51 74.8389 14.0912 74.5401 13.6678C75.1799 9.98712 74.8202 6.20393 73.4978 2.70657Z" fill="#3F3D56"/>
<path d="M66.6104 12.783L66.9251 8.81566L67.2398 4.84832C67.2568 4.63411 67.3304 4.4281 67.4532 4.25101C67.5759 4.07392 67.7435 3.93198 67.9392 3.83946C68.1348 3.74695 68.3516 3.70711 68.5677 3.72395C68.7838 3.7408 68.9916 3.81373 69.1702 3.93543L72.4789 6.18927L74.8949 7.83509C75.0494 7.65587 75.2411 7.51196 75.4571 7.41329C75.673 7.31461 75.9079 7.26352 76.1457 7.26352C76.3834 7.26352 76.6184 7.31461 76.8343 7.41329C77.0502 7.51196 77.242 7.65587 77.3964 7.83509L79.8125 6.18927L83.1211 3.93543C83.2998 3.81373 83.5076 3.7408 83.7237 3.72395C83.9398 3.70711 84.1565 3.74695 84.3522 3.83946C84.5478 3.93198 84.7154 4.07392 84.8382 4.25101C84.961 4.4281 85.0345 4.63411 85.0515 4.84832L85.3662 8.81566L85.6809 12.783C85.6979 12.9972 85.6577 13.2121 85.5644 13.406C85.4711 13.6 85.3279 13.7661 85.1493 13.8878C84.9706 14.0095 84.7628 14.0824 84.5467 14.0993C84.3306 14.1161 84.1139 14.0763 83.9182 13.9838L80.2948 12.2703L77.3177 10.8623C77.1645 11.0162 76.982 11.1384 76.7808 11.2218C76.5796 11.3052 76.3637 11.3481 76.1457 11.3481C75.9276 11.3481 75.7117 11.3052 75.5105 11.2218C75.3093 11.1384 75.1268 11.0162 74.9736 10.8623L71.9965 12.2703L68.3732 13.9838C68.1775 14.0763 67.9608 14.1161 67.7447 14.0993C67.5286 14.0825 67.3207 14.0095 67.1421 13.8878C66.9635 13.7661 66.8203 13.6 66.727 13.406C66.6336 13.2121 66.5934 12.9972 66.6104 12.783Z" fill="#2BBD3F"/>
<path d="M79.1242 28.57C79.1242 28.9777 79.4576 28.57 79.8689 28.57C80.2802 28.57 80.6135 28.9777 80.6135 28.57C80.6131 28.3745 80.5345 28.1871 80.3949 28.049C80.2553 27.9109 80.0661 27.8334 79.8689 27.8334C79.6717 27.8334 79.4825 27.9109 79.3429 28.049C79.2033 28.1871 79.1246 28.3745 79.1242 28.57Z" fill="#E6E6E6"/>
<path d="M72.6707 28.57C72.6707 28.9777 72.3373 28.57 71.926 28.57C71.5148 28.57 71.1814 28.9777 71.1814 28.57C71.1818 28.3745 71.2604 28.1871 71.4 28.049C71.5397 27.9109 71.7288 27.8334 71.926 27.8334C72.1233 27.8334 72.3124 27.9109 72.452 28.049C72.5916 28.1871 72.6703 28.3745 72.6707 28.57Z" fill="#E6E6E6"/>
<path d="M155.286 84.3035V79.6114H131.62V79.9048V84.3035V122.133V126.825H136.353H155.286V122.133H136.353V84.3035H155.286Z" fill="#3F3D56"/>
<path d="M166.824 79.6115V126.825H190.49V79.6115H166.824ZM185.757 122.133H171.557V84.3035H185.757V122.133Z" fill="#2BBD3F"/>
<path d="M101.15 122.133V79.9048H96.4164V122.133V126.825H101.15H120.083V122.133H101.15Z" fill="#2BBD3F"/>
<path d="M85.7667 84.3035V79.6114H62.1004V79.9048V84.3035V100.726V105.418V122.133V126.825H66.8337H85.7667V122.133H66.8337V105.418H85.7667V100.726H66.8337V84.3035H85.7667Z" fill="#3F3D56"/>
<path d="M270.955 84.3035V79.6114H247.289V79.9048V84.3035V100.726V105.418V122.133V126.825H252.022H270.955V122.133H252.022V105.418H270.955V100.726H252.022V84.3035H270.955Z" fill="#2BBD3F"/>
<path d="M46.1256 79.9048V118.684L33.6455 106.313L33.6171 106.341L33.5907 106.315L20.8324 118.962V79.7582H16.099V126.679H20.8324V125.597L33.6194 112.922L46.1256 125.319V126.825H50.8589V79.9048H46.1256Z" fill="#3F3D56"/>
<path d="M231.61 79.9048V80.9857L218.823 93.6615L206.317 81.2641V79.7582H201.583V126.679H206.317V87.8996L218.797 100.271L218.826 100.243L218.852 100.268L231.61 87.6212V126.825H236.343V79.9048H231.61Z" fill="#3F3D56"/>
<path d="M108.165 51.0009C109.769 51.0009 111.07 49.7115 111.07 48.121C111.07 46.5304 109.769 45.241 108.165 45.241C106.56 45.241 105.26 46.5304 105.26 48.121C105.26 49.7115 106.56 51.0009 108.165 51.0009Z" fill="#2BBD3F"/>
<path d="M36.5016 83.0006C38.1061 83.0006 39.4069 81.7112 39.4069 80.1207C39.4069 78.5301 38.1061 77.2407 36.5016 77.2407C34.8971 77.2407 33.5963 78.5301 33.5963 80.1207C33.5963 81.7112 34.8971 83.0006 36.5016 83.0006Z" fill="#2BBD3F"/>
<path d="M93.9613 147C95.5658 147 96.8666 145.711 96.8666 144.12C96.8666 142.529 95.5658 141.24 93.9613 141.24C92.3568 141.24 91.056 142.529 91.056 144.12C91.056 145.711 92.3568 147 93.9613 147Z" fill="#2BBD3F"/>
<path d="M166.916 59.6409C168.52 59.6409 169.821 58.3515 169.821 56.7609C169.821 55.1703 168.52 53.8809 166.916 53.8809C165.311 53.8809 164.01 55.1703 164.01 56.7609C164.01 58.3515 165.311 59.6409 166.916 59.6409Z" fill="#2BBD3F"/>
<path d="M252.46 144.44C254.064 144.44 255.365 143.151 255.365 141.56C255.365 139.969 254.064 138.68 252.46 138.68C250.855 138.68 249.554 139.969 249.554 141.56C249.554 143.151 250.855 144.44 252.46 144.44Z" fill="#2BBD3F"/>
<path d="M255.365 68.9208C256.969 68.9208 258.27 67.6314 258.27 66.0408C258.27 64.4502 256.969 63.1608 255.365 63.1608C253.76 63.1608 252.46 64.4502 252.46 66.0408C252.46 67.6314 253.76 68.9208 255.365 68.9208Z" fill="#2BBD3F"/>
<path d="M218.565 120.76C220.169 120.76 221.47 119.471 221.47 117.88C221.47 116.29 220.169 115 218.565 115C216.96 115 215.66 116.29 215.66 117.88C215.66 119.471 216.96 120.76 218.565 120.76Z" fill="#2BBD3F"/>
</svg>
